STARTFONT 2.1
FONT --Century18Rps-Regular-R-Normal--19-190-72-72-P-144-FONTSPECIFIC-0
SIZE 19 72 72
FONTBOUNDINGBOX 24 19 0 -3
METRICSSET 2
STARTPROPERTIES 19
FONT_ASCENT 16
FONT_DESCENT 3
PIXEL_SIZE 19
RESOLUTION_X 72
RESOLUTION_Y 72
POINT_SIZE 190
FACE_NAME "Classic 18-point"
FOUNDRY ""
FAMILY_NAME "Century18Rps"
WEIGHT_NAME "Regular"
RELATIVE_WEIGHT 50
SLANT "R"
SPACING "P"
SETWIDTH_NAME "Normal"
RELATIVE_SETWIDTH 50
ADD_STYLE_NAME ""
AVERAGE_WIDTH 144
CHARSET_REGISTRY "FONTSPECIFIC"
CHARSET_ENCODING "0"
ENDPROPERTIES
CHARS 195
STARTCHAR char00
ENCODING 0
SWIDTH 368 0
DWIDTH 7 0
BBX 6 18 0 -3
VVECTOR 3 16
SWIDTH1 0 -1000
DWIDTH1 0 -19
BITMAP 
FC
E0
E0
E0
E0
E0
E0
E0
E0
E0
E0
E0
E0
E0
E0
E0
E0
FC
ENDCHAR
STARTCHAR char08
ENCODING 8
SWIDTH 684 0
DWIDTH 13 0
BBX 11 13 1 0
VVECTOR 7 16
SWIDTH1 0 -1000
DWIDTH1 0 -19
BITMAP 
C000
C000
C000
C400
CC00
DC00
FFE0
DC00
CC00
C400
C000
C000
C000
ENDCHAR
STARTCHAR char09
ENCODING 9
SWIDTH 684 0
DWIDTH 13 0
BBX 11 13 1 0
VVECTOR 7 16
SWIDTH1 0 -1000
DWIDTH1 0 -19
BITMAP 
0060
0060
0060
0460
0660
0760
FFE0
0760
0660
0460
0060
0060
0060
ENDCHAR
STARTCHAR char0C
ENCODING 12
SWIDTH 1000 0
DWIDTH 19 0
BBX 13 13 3 0
VVECTOR 10 16
SWIDTH1 0 -1000
DWIDTH1 0 -19
BITMAP 
FFF8
8008
8008
8008
8008
8008
8008
8008
8008
8208
E738
0F80
1FC0
ENDCHAR
STARTCHAR char0D
ENCODING 13
SWIDTH 1000 0
DWIDTH 19 0
BBX 11 13 4 0
VVECTOR 10 16
SWIDTH1 0 -1000
DWIDTH1 0 -19
BITMAP 
1FC0
0060
0060
0060
0060
0060
1060
3060
7060
FFC0
7000
3000
1000
ENDCHAR
STARTCHAR char1C
ENCODING 28
SWIDTH 684 0
DWIDTH 13 0
BBX 9 7 2 3
VVECTOR 7 16
SWIDTH1 0 -1000
DWIDTH1 0 -19
BITMAP 
1000
3000
7000
FF80
7000
3000
1000
ENDCHAR
STARTCHAR char1D
ENCODING 29
SWIDTH 684 0
DWIDTH 13 0
BBX 9 7 2 3
VVECTOR 7 16
SWIDTH1 0 -1000
DWIDTH1 0 -19
BITMAP 
0400
0600
0700
FF80
0700
0600
0400
ENDCHAR
STARTCHAR char1E
ENCODING 30
SWIDTH 684 0
DWIDTH 13 0
BBX 7 8 3 3
VVECTOR 7 16
SWIDTH1 0 -1000
DWIDTH1 0 -19
BITMAP 
10
38
7C
FE
10
10
10
10
ENDCHAR
STARTCHAR char1F
ENCODING 31
SWIDTH 684 0
DWIDTH 13 0
BBX 7 8 3 3
VVECTOR 7 16
SWIDTH1 0 -1000
DWIDTH1 0 -19
BITMAP 
10
10
10
10
FE
7C
38
10
ENDCHAR
STARTCHAR char20
ENCODING 32
SWIDTH 526 0
DWIDTH 10 0
BBX 0 0 0 -3
VVECTOR 0 -3
SWIDTH1 0 0
DWIDTH1 0 0
BITMAP 
ENDCHAR
STARTCHAR char21
ENCODING 33
SWIDTH 421 0
DWIDTH 8 0
BBX 2 13 3 0
VVECTOR 4 16
SWIDTH1 0 -1000
DWIDTH1 0 -19
BITMAP 
C0
C0
C0
C0
C0
C0
C0
C0
C0
C0
00
C0
C0
ENDCHAR
STARTCHAR char22
ENCODING 34
SWIDTH 526 0
DWIDTH 10 0
BBX 6 4 2 9
VVECTOR 5 16
SWIDTH1 0 -1000
DWIDTH1 0 -19
BITMAP 
CC
CC
CC
CC
ENDCHAR
STARTCHAR char23
ENCODING 35
SWIDTH 947 0
DWIDTH 18 0
BBX 16 13 1 0
VVECTOR 9 16
SWIDTH1 0 -1000
DWIDTH1 0 -19
BITMAP 
0186
0104
030C
0208
3FFF
0410
0C30
0820
FFFC
1040
30C0
2080
6180
ENDCHAR
STARTCHAR char24
ENCODING 36
SWIDTH 684 0
DWIDTH 13 0
BBX 11 15 1 -1
VVECTOR 7 16
SWIDTH1 0 -1000
DWIDTH1 0 -19
BITMAP 
0400
0400
1F00
64C0
C4C0
C400
7400
1F00
05C0
0460
C460
C4C0
3F00
0400
0400
ENDCHAR
STARTCHAR char25
ENCODING 37
SWIDTH 947 0
DWIDTH 18 0
BBX 16 13 1 0
VVECTOR 9 16
SWIDTH1 0 -1000
DWIDTH1 0 -19
BITMAP 
7C00
C60C
C618
C630
7C60
00C0
0180
0300
063E
0C63
1863
3063
003E
ENDCHAR
STARTCHAR char26
ENCODING 38
SWIDTH 947 0
DWIDTH 18 0
BBX 16 13 1 0
VVECTOR 9 16
SWIDTH1 0 -1000
DWIDTH1 0 -19
BITMAP 
0600
1980
30C0
30C0
1980
0E00
361F
6304
C184
C0C8
C060
60B1
1F0E
ENDCHAR
STARTCHAR char27
ENCODING 39
SWIDTH 316 0
DWIDTH 6 0
BBX 2 4 2 9
VVECTOR 3 16
SWIDTH1 0 -1000
DWIDTH1 0 -19
BITMAP 
C0
C0
C0
C0
ENDCHAR
STARTCHAR char28
ENCODING 40
SWIDTH 474 0
DWIDTH 9 0
BBX 7 18 1 -3
VVECTOR 5 16
SWIDTH1 0 -1000
DWIDTH1 0 -19
BITMAP 
06
18
30
60
60
C0
C0
C0
C0
C0
C0
C0
C0
60
60
30
18
06
ENDCHAR
STARTCHAR char29
ENCODING 41
SWIDTH 474 0
DWIDTH 9 0
BBX 7 18 1 -3
VVECTOR 5 16
SWIDTH1 0 -1000
DWIDTH1 0 -19
BITMAP 
C0
30
18
0C
0C
06
06
06
06
06
06
06
06
0C
0C
18
30
C0
ENDCHAR
STARTCHAR char2A
ENCODING 42
SWIDTH 684 0
DWIDTH 13 0
BBX 10 7 1 5
VVECTOR 6 16
SWIDTH1 0 -1000
DWIDTH1 0 -19
BITMAP 
6180
3300
1E00
FFC0
1E00
3300
6180
ENDCHAR
STARTCHAR char2B
ENCODING 43
SWIDTH 1000 0
DWIDTH 19 0
BBX 13 9 3 2
VVECTOR 10 16
SWIDTH1 0 -1000
DWIDTH1 0 -19
BITMAP 
0200
0200
0200
0200
FFF8
0200
0200
0200
0200
ENDCHAR
STARTCHAR char2C
ENCODING 44
SWIDTH 316 0
DWIDTH 6 0
BBX 3 4 1 -3
VVECTOR 3 16
SWIDTH1 0 -1000
DWIDTH1 0 -19
BITMAP 
C0
60
40
80
ENDCHAR
STARTCHAR char2D
ENCODING 45
SWIDTH 1000 0
DWIDTH 19 0
BBX 13 1 3 6
VVECTOR 10 16
SWIDTH1 0 -1000
DWIDTH1 0 -19
BITMAP 
FFF8
ENDCHAR
STARTCHAR char2E
ENCODING 46
SWIDTH 316 0
DWIDTH 6 0
BBX 2 2 2 0
VVECTOR 3 16
SWIDTH1 0 -1000
DWIDTH1 0 -19
BITMAP 
C0
C0
ENDCHAR
STARTCHAR char2F
ENCODING 47
SWIDTH 474 0
DWIDTH 9 0
BBX 6 13 1 0
VVECTOR 4 16
SWIDTH1 0 -1000
DWIDTH1 0 -19
BITMAP 
04
04
08
08
10
10
20
20
20
40
40
80
80
ENDCHAR
STARTCHAR char30
ENCODING 48
SWIDTH 684 0
DWIDTH 13 0
BBX 11 13 1 0
VVECTOR 7 16
SWIDTH1 0 -1000
DWIDTH1 0 -19
BITMAP 
1F00
60C0
C060
C060
C060
C060
C060
C060
C060
C060
C060
60C0
1F00
ENDCHAR
STARTCHAR char31
ENCODING 49
SWIDTH 684 0
DWIDTH 13 0
BBX 10 13 1 0
VVECTOR 6 16
SWIDTH1 0 -1000
DWIDTH1 0 -19
BITMAP 
0C00
1C00
FC00
0C00
0C00
0C00
0C00
0C00
0C00
0C00
0C00
0C00
FFC0
ENDCHAR
STARTCHAR char32
ENCODING 50
SWIDTH 684 0
DWIDTH 13 0
BBX 10 13 1 0
VVECTOR 6 16
SWIDTH1 0 -1000
DWIDTH1 0 -19
BITMAP 
1E00
6180
C0C0
60C0
00C0
0180
0300
0C00
1000
2040
4040
80C0
FFC0
ENDCHAR
STARTCHAR char33
ENCODING 51
SWIDTH 684 0
DWIDTH 13 0
BBX 11 13 1 0
VVECTOR 7 16
SWIDTH1 0 -1000
DWIDTH1 0 -19
BITMAP 
1F00
60C0
C060
6060
00C0
0F00
00C0
0060
0060
6060
C060
60C0
1F00
ENDCHAR
STARTCHAR char34
ENCODING 52
SWIDTH 684 0
DWIDTH 13 0
BBX 11 13 1 0
VVECTOR 7 16
SWIDTH1 0 -1000
DWIDTH1 0 -19
BITMAP 
0080
0180
0380
0580
0980
1180
2180
4180
FFE0
0180
0180
0180
07E0
ENDCHAR
STARTCHAR char35
ENCODING 53
SWIDTH 684 0
DWIDTH 13 0
BBX 11 13 1 0
VVECTOR 7 16
SWIDTH1 0 -1000
DWIDTH1 0 -19
BITMAP 
7FC0
4000
4000
4000
5F00
60C0
4060
0060
0060
6060
C060
60C0
1F00
ENDCHAR
STARTCHAR char36
ENCODING 54
SWIDTH 684 0
DWIDTH 13 0
BBX 11 13 1 0
VVECTOR 7 16
SWIDTH1 0 -1000
DWIDTH1 0 -19
BITMAP 
0F00
30C0
4060
C0C0
C000
DF00
E0C0
C060
C060
C060
4060
30C0
0F00
ENDCHAR
STARTCHAR char37
ENCODING 55
SWIDTH 684 0
DWIDTH 13 0
BBX 11 13 1 0
VVECTOR 7 16
SWIDTH1 0 -1000
DWIDTH1 0 -19
BITMAP 
FFE0
C0C0
8180
8300
0300
0600
0600
0C00
0C00
0C00
0C00
0C00
0C00
ENDCHAR
STARTCHAR char38
ENCODING 56
SWIDTH 684 0
DWIDTH 13 0
BBX 11 13 1 0
VVECTOR 7 16
SWIDTH1 0 -1000
DWIDTH1 0 -19
BITMAP 
1F00
60C0
C060
C060
60C0
1F00
60C0
C060
C060
C060
C060
60C0
1F00
ENDCHAR
STARTCHAR char39
ENCODING 57
SWIDTH 684 0
DWIDTH 13 0
BBX 11 13 1 0
VVECTOR 7 16
SWIDTH1 0 -1000
DWIDTH1 0 -19
BITMAP 
1E00
6180
C040
C060
C060
C060
60E0
1F60
0060
6060
C040
6180
1E00
ENDCHAR
STARTCHAR char3A
ENCODING 58
SWIDTH 316 0
DWIDTH 6 0
BBX 2 8 2 0
VVECTOR 3 16
SWIDTH1 0 -1000
DWIDTH1 0 -19
BITMAP 
C0
C0
00
00
00
00
C0
C0
ENDCHAR
STARTCHAR char3B
ENCODING 59
SWIDTH 316 0
DWIDTH 6 0
BBX 3 11 2 -3
VVECTOR 4 16
SWIDTH1 0 -1000
DWIDTH1 0 -19
BITMAP 
C0
C0
00
00
00
00
00
C0
60
40
80
ENDCHAR
STARTCHAR char3C
ENCODING 60
SWIDTH 684 0
DWIDTH 13 0
BBX 7 11 3 1
VVECTOR 7 16
SWIDTH1 0 -1000
DWIDTH1 0 -19
BITMAP 
06
0C
18
30
60
C0
60
30
18
0C
06
ENDCHAR
STARTCHAR char3D
ENCODING 61
SWIDTH 1000 0
DWIDTH 19 0
BBX 13 5 3 4
VVECTOR 10 16
SWIDTH1 0 -1000
DWIDTH1 0 -19
BITMAP 
FFF8
0000
0000
0000
FFF8
ENDCHAR
STARTCHAR char3E
ENCODING 62
SWIDTH 684 0
DWIDTH 13 0
BBX 7 11 3 1
VVECTOR 7 16
SWIDTH1 0 -1000
DWIDTH1 0 -19
BITMAP 
C0
60
30
18
0C
06
0C
18
30
60
C0
ENDCHAR
STARTCHAR char3F
ENCODING 63
SWIDTH 684 0
DWIDTH 13 0
BBX 11 13 1 0
VVECTOR 7 16
SWIDTH1 0 -1000
DWIDTH1 0 -19
BITMAP 
1F00
60C0
C060
6060
00C0
0180
0300
0600
0C00
0800
0000
0C00
0C00
ENDCHAR
STARTCHAR char40
ENCODING 64
SWIDTH 1000 0
DWIDTH 19 0
BBX 13 11 3 1
VVECTOR 10 16
SWIDTH1 0 -1000
DWIDTH1 0 -19
BITMAP 
0F80
3060
4010
8788
8888
8888
8990
86E0
4000
3000
0FE0
ENDCHAR
STARTCHAR char41
ENCODING 65
SWIDTH 895 0
DWIDTH 17 0
BBX 16 13 0 0
VVECTOR 8 16
SWIDTH1 0 -1000
DWIDTH1 0 -19
BITMAP 
0180
02C0
02C0
0460
0460
0830
0830
0FF0
1018
1018
200C
200C
F83F
ENDCHAR
STARTCHAR char42
ENCODING 66
SWIDTH 842 0
DWIDTH 16 0
BBX 13 13 1 0
VVECTOR 8 16
SWIDTH1 0 -1000
DWIDTH1 0 -19
BITMAP 
FFC0
3030
3018
3018
3030
3FC0
3030
3018
3018
3018
3018
3030
FFC0
ENDCHAR
STARTCHAR char43
ENCODING 67
SWIDTH 789 0
DWIDTH 15 0
BBX 12 13 2 0
VVECTOR 8 16
SWIDTH1 0 -1000
DWIDTH1 0 -19
BITMAP 
0F20
30E0
6060
C020
C000
C000
C000
C000
C000
C000
6010
3020
0FC0
ENDCHAR
STARTCHAR char44
ENCODING 68
SWIDTH 947 0
DWIDTH 18 0
BBX 15 13 1 0
VVECTOR 9 16
SWIDTH1 0 -1000
DWIDTH1 0 -19
BITMAP 
FFE0
3018
300C
3006
3006
3006
3006
3006
3006
3006
300C
3018
FFE0
ENDCHAR
STARTCHAR char45
ENCODING 69
SWIDTH 895 0
DWIDTH 17 0
BBX 14 13 1 0
VVECTOR 8 16
SWIDTH1 0 -1000
DWIDTH1 0 -19
BITMAP 
FFFC
180C
1804
1804
1840
18C0
1FC0
18C0
1840
1804
1804
180C
FFFC
ENDCHAR
STARTCHAR char46
ENCODING 70
SWIDTH 842 0
DWIDTH 16 0
BBX 13 13 1 0
VVECTOR 8 16
SWIDTH1 0 -1000
DWIDTH1 0 -19
BITMAP 
FFF8
1818
1808
1808
1840
18C0
1FC0
18C0
1840
1800
1800
1800
FF80
ENDCHAR
STARTCHAR char47
ENCODING 71
SWIDTH 947 0
DWIDTH 18 0
BBX 15 13 2 0
VVECTOR 10 16
SWIDTH1 0 -1000
DWIDTH1 0 -19
BITMAP 
0FC8
3038
6018
C008
C000
C000
C000
C07E
C018
C018
6038
3058
0F88
ENDCHAR
STARTCHAR char48
ENCODING 72
SWIDTH 1053 0
DWIDTH 20 0
BBX 17 13 1 0
VVECTOR 10 16
SWIDTH1 0 -1000
DWIDTH1 0 -19
BITMAP 
FC1F80
300600
300600
300600
300600
300600
3FFE00
300600
300600
300600
300600
300600
FC1F80
ENDCHAR
STARTCHAR char49
ENCODING 73
SWIDTH 526 0
DWIDTH 10 0
BBX 6 13 2 0
VVECTOR 5 16
SWIDTH1 0 -1000
DWIDTH1 0 -19
BITMAP 
FC
30
30
30
30
30
30
30
30
30
30
30
FC
ENDCHAR
STARTCHAR char4A
ENCODING 74
SWIDTH 684 0
DWIDTH 13 0
BBX 11 13 1 0
VVECTOR 7 16
SWIDTH1 0 -1000
DWIDTH1 0 -19
BITMAP 
07E0
0180
0180
0180
0180
0180
0180
0180
0180
6180
C180
6300
1C00
ENDCHAR
STARTCHAR char4B
ENCODING 75
SWIDTH 1053 0
DWIDTH 20 0
BBX 17 13 2 0
VVECTOR 11 16
SWIDTH1 0 -1000
DWIDTH1 0 -19
BITMAP 
FC3F00
300800
301000
302000
304000
308000
318000
32C000
346000
383000
301800
300C00
FC3F80
ENDCHAR
STARTCHAR char4C
ENCODING 76
SWIDTH 842 0
DWIDTH 16 0
BBX 12 13 2 0
VVECTOR 8 16
SWIDTH1 0 -1000
DWIDTH1 0 -19
BITMAP 
FC00
3000
3000
3000
3000
3000
3000
3000
3000
3010
3010
3030
FFF0
ENDCHAR
STARTCHAR char4D
ENCODING 77
SWIDTH 1211 0
DWIDTH 23 0
BBX 21 13 1 0
VVECTOR 12 16
SWIDTH1 0 -1000
DWIDTH1 0 -19
BITMAP 
F800F8
3800E0
2C0160
2C0160
260260
260260
230460
230460
218860
218860
20D060
20D060
F861F8
ENDCHAR
STARTCHAR char4E
ENCODING 78
SWIDTH 1000 0
DWIDTH 19 0
BBX 17 13 1 0
VVECTOR 10 16
SWIDTH1 0 -1000
DWIDTH1 0 -19
BITMAP 
F00F80
380200
2C0200
260200
230200
218200
20C200
206200
203200
201A00
200E00
200600
F80200
ENDCHAR
STARTCHAR char4F
ENCODING 79
SWIDTH 895 0
DWIDTH 17 0
BBX 15 13 1 0
VVECTOR 9 16
SWIDTH1 0 -1000
DWIDTH1 0 -19
BITMAP 
0FE0
3018
600C
C006
C006
C006
C006
C006
C006
C006
600C
3018
0FE0
ENDCHAR
STARTCHAR char50
ENCODING 80
SWIDTH 842 0
DWIDTH 16 0
BBX 13 13 1 0
VVECTOR 8 16
SWIDTH1 0 -1000
DWIDTH1 0 -19
BITMAP 
FFC0
3030
3018
3018
3018
3030
3FC0
3000
3000
3000
3000
3000
FC00
ENDCHAR
STARTCHAR char51
ENCODING 81
SWIDTH 947 0
DWIDTH 18 0
BBX 14 15 2 -2
VVECTOR 9 16
SWIDTH1 0 -1000
DWIDTH1 0 -19
BITMAP 
0FC0
3030
6018
C00C
C00C
C00C
C00C
C00C
C70C
C98C
6998
35B0
0FC0
00C8
0070
ENDCHAR
STARTCHAR char52
ENCODING 82
SWIDTH 895 0
DWIDTH 17 0
BBX 15 13 1 0
VVECTOR 9 16
SWIDTH1 0 -1000
DWIDTH1 0 -19
BITMAP 
FFC0
3030
3018
3018
3018
3030
3FC0
3030
3018
3018
3018
301A
FC0C
ENDCHAR
STARTCHAR char53
ENCODING 83
SWIDTH 737 0
DWIDTH 14 0
BBX 11 13 2 0
VVECTOR 8 16
SWIDTH1 0 -1000
DWIDTH1 0 -19
BITMAP 
1E40
61C0
C0C0
C040
E040
7800
1F00
03C0
80E0
8060
C060
E0C0
9F00
ENDCHAR
STARTCHAR char54
ENCODING 84
SWIDTH 842 0
DWIDTH 16 0
BBX 14 13 1 0
VVECTOR 8 16
SWIDTH1 0 -1000
DWIDTH1 0 -19
BITMAP 
FFFC
C30C
8304
8304
0300
0300
0300
0300
0300
0300
0300
0300
1FE0
ENDCHAR
STARTCHAR char55
ENCODING 85
SWIDTH 947 0
DWIDTH 18 0
BBX 16 13 1 0
VVECTOR 9 16
SWIDTH1 0 -1000
DWIDTH1 0 -19
BITMAP 
FC1F
3004
3004
3004
3004
3004
3004
3004
3004
3004
3004
1808
07F0
ENDCHAR
STARTCHAR char56
ENCODING 86
SWIDTH 895 0
DWIDTH 17 0
BBX 16 13 0 0
VVECTOR 8 16
SWIDTH1 0 -1000
DWIDTH1 0 -19
BITMAP 
FC1F
3004
3004
1808
1808
0C10
0C10
0620
0620
0340
0340
0180
0180
ENDCHAR
STARTCHAR char57
ENCODING 87
SWIDTH 1316 0
DWIDTH 25 0
BBX 24 13 0 0
VVECTOR 12 16
SWIDTH1 0 -1000
DWIDTH1 0 -19
BITMAP 
F8FC1F
303004
303004
181808
181808
0C2C10
0C2C10
062620
064620
034340
034340
018180
018180
ENDCHAR
STARTCHAR char58
ENCODING 88
SWIDTH 895 0
DWIDTH 17 0
BBX 16 13 0 0
VVECTOR 8 16
SWIDTH1 0 -1000
DWIDTH1 0 -19
BITMAP 
FC3E
3008
1810
0C20
0640
0380
0180
02C0
0460
0830
1018
300C
FC3F
ENDCHAR
STARTCHAR char59
ENCODING 89
SWIDTH 842 0
DWIDTH 16 0
BBX 14 13 1 0
VVECTOR 8 16
SWIDTH1 0 -1000
DWIDTH1 0 -19
BITMAP 
FC7C
3010
1820
1820
0C40
0680
0680
0300
0300
0300
0300
0300
0FC0
ENDCHAR
STARTCHAR char5A
ENCODING 90
SWIDTH 737 0
DWIDTH 14 0
BBX 12 13 1 0
VVECTOR 7 16
SWIDTH1 0 -1000
DWIDTH1 0 -19
BITMAP 
FFF0
C030
8060
80C0
0180
0300
0600
0C00
1800
3010
6010
C030
FFF0
ENDCHAR
STARTCHAR char5B
ENCODING 91
SWIDTH 474 0
DWIDTH 9 0
BBX 6 18 1 -3
VVECTOR 4 16
SWIDTH1 0 -1000
DWIDTH1 0 -19
BITMAP 
FC
C0
C0
C0
C0
C0
C0
C0
C0
C0
C0
C0
C0
C0
C0
C0
C0
FC
ENDCHAR
STARTCHAR char5C
ENCODING 92
SWIDTH 474 0
DWIDTH 9 0
BBX 6 13 1 0
VVECTOR 4 16
SWIDTH1 0 -1000
DWIDTH1 0 -19
BITMAP 
80
80
40
40
20
20
10
10
10
08
08
04
04
ENDCHAR
STARTCHAR char5D
ENCODING 93
SWIDTH 474 0
DWIDTH 9 0
BBX 6 18 2 -3
VVECTOR 5 16
SWIDTH1 0 -1000
DWIDTH1 0 -19
BITMAP 
FC
0C
0C
0C
0C
0C
0C
0C
0C
0C
0C
0C
0C
0C
0C
0C
0C
FC
ENDCHAR
STARTCHAR char5E
ENCODING 94
SWIDTH 684 0
DWIDTH 13 0
BBX 7 4 3 12
VVECTOR 7 16
SWIDTH1 0 -1000
DWIDTH1 0 -19
BITMAP 
10
38
6C
C6
ENDCHAR
STARTCHAR char5F
ENCODING 95
SWIDTH 1000 0
DWIDTH 19 0
BBX 19 1 0 -3
VVECTOR 10 16
SWIDTH1 0 -1000
DWIDTH1 0 -19
BITMAP 
FFFFE0
ENDCHAR
STARTCHAR char60
ENCODING 96
SWIDTH 684 0
DWIDTH 13 0
BBX 4 3 5 13
VVECTOR 7 16
SWIDTH1 0 -1000
DWIDTH1 0 -19
BITMAP 
C0
60
10
ENDCHAR
STARTCHAR char61
ENCODING 97
SWIDTH 737 0
DWIDTH 14 0
BBX 11 9 2 0
VVECTOR 8 16
SWIDTH1 0 -1000
DWIDTH1 0 -19
BITMAP 
1F00
6180
0180
1F80
6180
C180
C180
63A0
1CC0
ENDCHAR
STARTCHAR char62
ENCODING 98
SWIDTH 789 0
DWIDTH 15 0
BBX 12 13 1 0
VVECTOR 7 16
SWIDTH1 0 -1000
DWIDTH1 0 -19
BITMAP 
F000
3000
3000
3000
3780
3860
3030
3030
3030
3030
3030
3860
2780
ENDCHAR
STARTCHAR char63
ENCODING 99
SWIDTH 684 0
DWIDTH 13 0
BBX 10 9 2 0
VVECTOR 7 16
SWIDTH1 0 -1000
DWIDTH1 0 -19
BITMAP 
1E80
6180
C080
C000
C000
C000
C040
6080
1F00
ENDCHAR
STARTCHAR char64
ENCODING 100
SWIDTH 789 0
DWIDTH 15 0
BBX 12 13 2 0
VVECTOR 8 16
SWIDTH1 0 -1000
DWIDTH1 0 -19
BITMAP 
03C0
00C0
00C0
00C0
1EC0
61C0
C0C0
C0C0
C0C0
C0C0
C0C0
61C0
1E70
ENDCHAR
STARTCHAR char65
ENCODING 101
SWIDTH 737 0
DWIDTH 14 0
BBX 10 9 2 0
VVECTOR 7 16
SWIDTH1 0 -1000
DWIDTH1 0 -19
BITMAP 
1E00
6180
C0C0
C0C0
FFC0
C000
C000
6080
1F00
ENDCHAR
STARTCHAR char66
ENCODING 102
SWIDTH 579 0
DWIDTH 11 0
BBX 9 13 1 0
VVECTOR 6 16
SWIDTH1 0 -1000
DWIDTH1 0 -19
BITMAP 
0F00
1080
3180
3000
FC00
3000
3000
3000
3000
3000
3000
3000
FC00
ENDCHAR
STARTCHAR char67
ENCODING 103
SWIDTH 737 0
DWIDTH 14 0
BBX 12 13 1 -3
VVECTOR 7 16
SWIDTH1 0 -1000
DWIDTH1 0 -19
BITMAP 
0030
0F40
30C0
6060
6060
30C0
1F00
6000
3F80
6060
C030
6060
1F80
ENDCHAR
STARTCHAR char68
ENCODING 104
SWIDTH 895 0
DWIDTH 17 0
BBX 14 13 2 0
VVECTOR 9 16
SWIDTH1 0 -1000
DWIDTH1 0 -19
BITMAP 
F000
3000
3000
3000
33E0
3430
3830
3030
3030
3030
3030
3030
FC3C
ENDCHAR
STARTCHAR char69
ENCODING 105
SWIDTH 474 0
DWIDTH 9 0
BBX 6 13 2 0
VVECTOR 5 16
SWIDTH1 0 -1000
DWIDTH1 0 -19
BITMAP 
30
30
00
00
F0
30
30
30
30
30
30
30
FC
ENDCHAR
STARTCHAR char6A
ENCODING 106
SWIDTH 421 0
DWIDTH 8 0
BBX 6 16 0 -3
VVECTOR 3 16
SWIDTH1 0 -1000
DWIDTH1 0 -19
BITMAP 
0C
0C
00
00
3C
0C
0C
0C
0C
0C
0C
0C
0C
CC
88
70
ENDCHAR
STARTCHAR char6B
ENCODING 107
SWIDTH 842 0
DWIDTH 16 0
BBX 13 13 2 0
VVECTOR 9 16
SWIDTH1 0 -1000
DWIDTH1 0 -19
BITMAP 
F000
3000
3000
3000
31F8
3040
3080
3100
3300
3580
38C0
3060
FC38
ENDCHAR
STARTCHAR char6C
ENCODING 108
SWIDTH 474 0
DWIDTH 9 0
BBX 6 13 2 0
VVECTOR 5 16
SWIDTH1 0 -1000
DWIDTH1 0 -19
BITMAP 
F0
30
30
30
30
30
30
30
30
30
30
30
FC
ENDCHAR
STARTCHAR char6D
ENCODING 109
SWIDTH 1211 0
DWIDTH 23 0
BBX 20 9 2 0
VVECTOR 12 16
SWIDTH1 0 -1000
DWIDTH1 0 -19
BITMAP 
F3C780
3468C0
3870C0
3060C0
3060C0
3060C0
3060C0
3060C0
FC78F0
ENDCHAR
STARTCHAR char6E
ENCODING 110
SWIDTH 895 0
DWIDTH 17 0
BBX 14 9 2 0
VVECTOR 9 16
SWIDTH1 0 -1000
DWIDTH1 0 -19
BITMAP 
F3E0
3430
3830
3030
3030
3030
3030
3030
FC3C
ENDCHAR
STARTCHAR char6F
ENCODING 111
SWIDTH 737 0
DWIDTH 14 0
BBX 10 9 2 0
VVECTOR 7 16
SWIDTH1 0 -1000
DWIDTH1 0 -19
BITMAP 
1E00
6180
C0C0
C0C0
C0C0
C0C0
C0C0
6180
1E00
ENDCHAR
STARTCHAR char70
ENCODING 112
SWIDTH 789 0
DWIDTH 15 0
BBX 12 12 1 -3
VVECTOR 7 16
SWIDTH1 0 -1000
DWIDTH1 0 -19
BITMAP 
F780
3860
3030
3030
3030
3030
3030
3860
3780
3000
3000
FC00
ENDCHAR
STARTCHAR char71
ENCODING 113
SWIDTH 737 0
DWIDTH 14 0
BBX 12 12 2 -3
VVECTOR 8 16
SWIDTH1 0 -1000
DWIDTH1 0 -19
BITMAP 
1E40
61C0
C0C0
C0C0
C0C0
C0C0
C0C0
61C0
1EC0
00C0
00C0
03F0
ENDCHAR
STARTCHAR char72
ENCODING 114
SWIDTH 632 0
DWIDTH 12 0
BBX 10 9 1 0
VVECTOR 6 16
SWIDTH1 0 -1000
DWIDTH1 0 -19
BITMAP 
F380
3440
38C0
3000
3000
3000
3000
3000
FC00
ENDCHAR
STARTCHAR char73
ENCODING 115
SWIDTH 579 0
DWIDTH 11 0
BBX 9 9 1 0
VVECTOR 6 16
SWIDTH1 0 -1000
DWIDTH1 0 -19
BITMAP 
3D00
4300
C100
7000
1C00
0700
8180
C100
BE00
ENDCHAR
STARTCHAR char74
ENCODING 116
SWIDTH 526 0
DWIDTH 10 0
BBX 8 12 1 0
VVECTOR 5 16
SWIDTH1 0 -1000
DWIDTH1 0 -19
BITMAP 
08
18
18
FF
18
18
18
18
18
18
19
0E
ENDCHAR
STARTCHAR char75
ENCODING 117
SWIDTH 842 0
DWIDTH 16 0
BBX 14 9 1 0
VVECTOR 8 16
SWIDTH1 0 -1000
DWIDTH1 0 -19
BITMAP 
F0F0
3030
3030
3030
3030
3030
3070
30B0
1F3C
ENDCHAR
STARTCHAR char76
ENCODING 118
SWIDTH 842 0
DWIDTH 16 0
BBX 14 9 1 0
VVECTOR 8 16
SWIDTH1 0 -1000
DWIDTH1 0 -19
BITMAP 
FC7C
3010
1820
1820
0C40
0C40
0680
0680
0300
ENDCHAR
STARTCHAR char77
ENCODING 119
SWIDTH 1158 0
DWIDTH 22 0
BBX 19 9 1 0
VVECTOR 11 16
SWIDTH1 0 -1000
DWIDTH1 0 -19
BITMAP 
F9F3E0
306080
306080
18B100
18B100
0D1A00
0D1A00
060C00
060C00
ENDCHAR
STARTCHAR char78
ENCODING 120
SWIDTH 737 0
DWIDTH 14 0
BBX 12 9 1 0
VVECTOR 7 16
SWIDTH1 0 -1000
DWIDTH1 0 -19
BITMAP 
F9F0
3040
1880
0D00
0600
0B00
1180
20C0
F9F0
ENDCHAR
STARTCHAR char79
ENCODING 121
SWIDTH 789 0
DWIDTH 15 0
BBX 13 12 1 -3
VVECTOR 8 16
SWIDTH1 0 -1000
DWIDTH1 0 -19
BITMAP 
FCF8
3020
3020
1840
1840
0C80
0C80
0500
0700
6200
4400
3800
ENDCHAR
STARTCHAR char7A
ENCODING 122
SWIDTH 579 0
DWIDTH 11 0
BBX 9 9 1 0
VVECTOR 6 16
SWIDTH1 0 -1000
DWIDTH1 0 -19
BITMAP 
FF80
C300
8600
0C00
1800
3000
6080
C180
FF80
ENDCHAR
STARTCHAR char7B
ENCODING 123
SWIDTH 474 0
DWIDTH 9 0
BBX 7 18 1 -3
VVECTOR 5 16
SWIDTH1 0 -1000
DWIDTH1 0 -19
BITMAP 
1E
30
30
30
30
30
30
20
C0
20
30
30
30
30
30
30
30
1E
ENDCHAR
STARTCHAR char7C
ENCODING 124
SWIDTH 316 0
DWIDTH 6 0
BBX 2 16 2 -1
VVECTOR 3 16
SWIDTH1 0 -1000
DWIDTH1 0 -19
BITMAP 
C0
C0
C0
C0
C0
C0
C0
C0
C0
C0
C0
C0
C0
C0
C0
C0
ENDCHAR
STARTCHAR char7D
ENCODING 125
SWIDTH 474 0
DWIDTH 9 0
BBX 7 18 1 -3
VVECTOR 5 16
SWIDTH1 0 -1000
DWIDTH1 0 -19
BITMAP 
F0
18
18
18
18
18
18
08
06
08
18
18
18
18
18
18
18
F0
ENDCHAR
STARTCHAR char7E
ENCODING 126
SWIDTH 684 0
DWIDTH 13 0
BBX 10 2 1 14
VVECTOR 6 16
SWIDTH1 0 -1000
DWIDTH1 0 -19
BITMAP 
7840
8780
ENDCHAR
STARTCHAR char7F
ENCODING 127
SWIDTH 684 0
DWIDTH 13 0
BBX 0 0 2 -3
VVECTOR 2 -3
SWIDTH1 0 0
DWIDTH1 0 0
BITMAP 
ENDCHAR
STARTCHAR char80
ENCODING 128
SWIDTH 895 0
DWIDTH 17 0
BBX 16 16 0 0
VVECTOR 8 16
SWIDTH1 0 -1000
DWIDTH1 0 -19
BITMAP 
0660
0660
0000
0180
02C0
02C0
0460
0460
0830
0830
0FF0
1018
1018
200C
200C
F83F
ENDCHAR
STARTCHAR char81
ENCODING 129
SWIDTH 895 0
DWIDTH 17 0
BBX 16 16 0 0
VVECTOR 8 16
SWIDTH1 0 -1000
DWIDTH1 0 -19
BITMAP 
0180
0240
0240
0180
02C0
02C0
0460
0460
0830
0830
0FF0
1018
1018
200C
200C
F83F
ENDCHAR
STARTCHAR char82
ENCODING 130
SWIDTH 737 0
DWIDTH 14 0
BBX 12 16 1 -3
VVECTOR 7 16
SWIDTH1 0 -1000
DWIDTH1 0 -19
BITMAP 
0F90
3070
6030
C010
C000
C000
C000
C000
C000
C000
6010
3060
0F80
0300
0080
0700
ENDCHAR
STARTCHAR char83
ENCODING 131
SWIDTH 842 0
DWIDTH 16 0
BBX 14 16 1 0
VVECTOR 8 16
SWIDTH1 0 -1000
DWIDTH1 0 -19
BITMAP 
00C0
0100
0000
FFFC
180C
1804
1804
1840
18C0
1FC0
18C0
1840
1804
1804
180C
FFFC
ENDCHAR
STARTCHAR char84
ENCODING 132
SWIDTH 1000 0
DWIDTH 19 0
BBX 17 16 1 0
VVECTOR 10 16
SWIDTH1 0 -1000
DWIDTH1 0 -19
BITMAP 
038800
047000
000000
F00F80
380200
2C0200
260200
230200
218200
20C200
206200
203200
201A00
200E00
200600
F80200
ENDCHAR
STARTCHAR char85
ENCODING 133
SWIDTH 947 0
DWIDTH 18 0
BBX 14 16 2 0
VVECTOR 9 16
SWIDTH1 0 -1000
DWIDTH1 0 -19
BITMAP 
1860
1860
0000
0FC0
3030
6018
C00C
C00C
C00C
C00C
C00C
C00C
C00C
6018
3030
0FC0
ENDCHAR
STARTCHAR char86
ENCODING 134
SWIDTH 1000 0
DWIDTH 19 0
BBX 16 16 2 0
VVECTOR 10 16
SWIDTH1 0 -1000
DWIDTH1 0 -19
BITMAP 
0630
0630
0000
FC1F
3004
3004
3004
3004
3004
3004
3004
3004
3004
3004
1808
07F0
ENDCHAR
STARTCHAR char87
ENCODING 135
SWIDTH 737 0
DWIDTH 14 0
BBX 11 14 2 0
VVECTOR 8 16
SWIDTH1 0 -1000
DWIDTH1 0 -19
BITMAP 
0180
0300
0400
0000
0000
1F00
6180
0180
1F80
6180
C180
C180
63A0
1CC0
ENDCHAR
STARTCHAR char88
ENCODING 136
SWIDTH 737 0
DWIDTH 14 0
BBX 11 14 2 0
VVECTOR 8 16
SWIDTH1 0 -1000
DWIDTH1 0 -19
BITMAP 
3000
1800
0400
0000
0000
1F00
6180
0180
1F80
6180
C180
C180
63A0
1CC0
ENDCHAR
STARTCHAR char89
ENCODING 137
SWIDTH 737 0
DWIDTH 14 0
BBX 11 14 2 0
VVECTOR 8 16
SWIDTH1 0 -1000
DWIDTH1 0 -19
BITMAP 
0C00
1E00
3300
0000
0000
1F00
6180
0180
1F80
6180
C180
C180
63A0
1CC0
ENDCHAR
STARTCHAR char8A
ENCODING 138
SWIDTH 737 0
DWIDTH 14 0
BBX 11 13 2 0
VVECTOR 8 16
SWIDTH1 0 -1000
DWIDTH1 0 -19
BITMAP 
3300
3300
0000
0000
1F00
6180
0180
1F80
6180
C180
C180
63A0
1CC0
ENDCHAR
STARTCHAR char8B
ENCODING 139
SWIDTH 737 0
DWIDTH 14 0
BBX 11 13 2 0
VVECTOR 8 16
SWIDTH1 0 -1000
DWIDTH1 0 -19
BITMAP 
3880
4700
0000
0000
1F00
6180
0180
1F80
6180
C180
C180
63A0
1CC0
ENDCHAR
STARTCHAR char8C
ENCODING 140
SWIDTH 737 0
DWIDTH 14 0
BBX 11 14 2 0
VVECTOR 8 16
SWIDTH1 0 -1000
DWIDTH1 0 -19
BITMAP 
0C00
1200
1200
0C00
0000
1F00
6180
0180
1F80
6180
C180
C180
63A0
1CC0
ENDCHAR
STARTCHAR char8D
ENCODING 141
SWIDTH 684 0
DWIDTH 13 0
BBX 10 12 2 -3
VVECTOR 7 16
SWIDTH1 0 -1000
DWIDTH1 0 -19
BITMAP 
1E80
6180
C080
C000
C000
C000
C040
6080
1F00
0400
0200
0C00
ENDCHAR
STARTCHAR char8E
ENCODING 142
SWIDTH 737 0
DWIDTH 14 0
BBX 10 14 2 0
VVECTOR 7 16
SWIDTH1 0 -1000
DWIDTH1 0 -19
BITMAP 
0180
0300
0400
0000
0000
1E00
6180
C0C0
C0C0
FFC0
C000
C000
6080
1F00
ENDCHAR
STARTCHAR char8F
ENCODING 143
SWIDTH 737 0
DWIDTH 14 0
BBX 10 14 2 0
VVECTOR 7 16
SWIDTH1 0 -1000
DWIDTH1 0 -19
BITMAP 
3000
1800
0400
0000
0000
1E00
6180
C0C0
C0C0
FFC0
C000
C000
6080
1F00
ENDCHAR
STARTCHAR char90
ENCODING 144
SWIDTH 737 0
DWIDTH 14 0
BBX 10 14 2 0
VVECTOR 7 16
SWIDTH1 0 -1000
DWIDTH1 0 -19
BITMAP 
0C00
1E00
3300
0000
0000
1E00
6180
C0C0
C0C0
FFC0
C000
C000
6080
1F00
ENDCHAR
STARTCHAR char91
ENCODING 145
SWIDTH 737 0
DWIDTH 14 0
BBX 10 13 2 0
VVECTOR 7 16
SWIDTH1 0 -1000
DWIDTH1 0 -19
BITMAP 
6180
6180
0000
0000
1E00
6180
C0C0
C0C0
FFC0
C000
C000
6080
1F00
ENDCHAR
STARTCHAR char92
ENCODING 146
SWIDTH 474 0
DWIDTH 9 0
BBX 6 14 2 0
VVECTOR 5 16
SWIDTH1 0 -1000
DWIDTH1 0 -19
BITMAP 
0C
18
20
00
00
F0
30
30
30
30
30
30
30
FC
ENDCHAR
STARTCHAR char93
ENCODING 147
SWIDTH 474 0
DWIDTH 9 0
BBX 6 14 2 0
VVECTOR 5 16
SWIDTH1 0 -1000
DWIDTH1 0 -19
BITMAP 
C0
60
10
00
00
F0
30
30
30
30
30
30
30
FC
ENDCHAR
STARTCHAR char94
ENCODING 148
SWIDTH 474 0
DWIDTH 9 0
BBX 6 14 2 0
VVECTOR 5 16
SWIDTH1 0 -1000
DWIDTH1 0 -19
BITMAP 
30
78
CC
00
00
F0
30
30
30
30
30
30
30
FC
ENDCHAR
STARTCHAR char95
ENCODING 149
SWIDTH 474 0
DWIDTH 9 0
BBX 7 13 1 0
VVECTOR 5 16
SWIDTH1 0 -1000
DWIDTH1 0 -19
BITMAP 
C6
C6
00
00
78
18
18
18
18
18
18
18
7E
ENDCHAR
STARTCHAR char96
ENCODING 150
SWIDTH 895 0
DWIDTH 17 0
BBX 14 13 2 0
VVECTOR 9 16
SWIDTH1 0 -1000
DWIDTH1 0 -19
BITMAP 
0E20
11C0
0000
0000
F3E0
3430
3830
3030
3030
3030
3030
3030
FC3C
ENDCHAR
STARTCHAR char97
ENCODING 151
SWIDTH 737 0
DWIDTH 14 0
BBX 10 14 2 0
VVECTOR 7 16
SWIDTH1 0 -1000
DWIDTH1 0 -19
BITMAP 
0180
0300
0400
0000
0000
1E00
6180
C0C0
C0C0
C0C0
C0C0
C0C0
6180
1E00
ENDCHAR
STARTCHAR char98
ENCODING 152
SWIDTH 737 0
DWIDTH 14 0
BBX 10 14 2 0
VVECTOR 7 16
SWIDTH1 0 -1000
DWIDTH1 0 -19
BITMAP 
3000
1800
0400
0000
0000
1E00
6180
C0C0
C0C0
C0C0
C0C0
C0C0
6180
1E00
ENDCHAR
STARTCHAR char99
ENCODING 153
SWIDTH 737 0
DWIDTH 14 0
BBX 10 14 2 0
VVECTOR 7 16
SWIDTH1 0 -1000
DWIDTH1 0 -19
BITMAP 
0C00
1E00
3300
0000
0000
1E00
6180
C0C0
C0C0
C0C0
C0C0
C0C0
6180
1E00
ENDCHAR
STARTCHAR char9A
ENCODING 154
SWIDTH 737 0
DWIDTH 14 0
BBX 10 13 2 0
VVECTOR 7 16
SWIDTH1 0 -1000
DWIDTH1 0 -19
BITMAP 
3180
3180
0000
0000
1E00
6180
C0C0
C0C0
C0C0
C0C0
C0C0
6180
1E00
ENDCHAR
STARTCHAR char9B
ENCODING 155
SWIDTH 737 0
DWIDTH 14 0
BBX 10 13 2 0
VVECTOR 7 16
SWIDTH1 0 -1000
DWIDTH1 0 -19
BITMAP 
3C40
4780
0000
0000
1E00
6180
C0C0
C0C0
C0C0
C0C0
C0C0
6180
1E00
ENDCHAR
STARTCHAR char9C
ENCODING 156
SWIDTH 842 0
DWIDTH 16 0
BBX 14 14 1 0
VVECTOR 8 16
SWIDTH1 0 -1000
DWIDTH1 0 -19
BITMAP 
00C0
0180
0200
0000
0000
F0F0
3030
3030
3030
3030
3030
3070
30B0
1F3C
ENDCHAR
STARTCHAR char9D
ENCODING 157
SWIDTH 842 0
DWIDTH 16 0
BBX 14 14 1 0
VVECTOR 8 16
SWIDTH1 0 -1000
DWIDTH1 0 -19
BITMAP 
1800
0C00
0200
0000
0000
F0F0
3030
3030
3030
3030
3030
3070
30B0
1F3C
ENDCHAR
STARTCHAR char9E
ENCODING 158
SWIDTH 842 0
DWIDTH 16 0
BBX 14 14 1 0
VVECTOR 8 16
SWIDTH1 0 -1000
DWIDTH1 0 -19
BITMAP 
0300
0780
0CC0
0000
0000
F0F0
3030
3030
3030
3030
3030
3070
30B0
1F3C
ENDCHAR
STARTCHAR char9F
ENCODING 159
SWIDTH 842 0
DWIDTH 16 0
BBX 14 13 1 0
VVECTOR 8 16
SWIDTH1 0 -1000
DWIDTH1 0 -19
BITMAP 
1860
1860
0000
0000
F0F0
3030
3030
3030
3030
3030
3070
30B0
1F3C
ENDCHAR
STARTCHAR charA0
ENCODING 160
SWIDTH 684 0
DWIDTH 13 0
BBX 10 14 2 -1
VVECTOR 7 16
SWIDTH1 0 -1000
DWIDTH1 0 -19
BITMAP 
0C00
0C00
8C40
8C40
FFC0
8C40
8C40
0C00
0C00
0C00
0C00
0C00
0C00
0C00
ENDCHAR
STARTCHAR charA1
ENCODING 161
SWIDTH 474 0
DWIDTH 9 0
BBX 5 4 2 9
VVECTOR 5 16
SWIDTH1 0 -1000
DWIDTH1 0 -19
BITMAP 
70
88
88
70
ENDCHAR
STARTCHAR charA2
ENCODING 162
SWIDTH 684 0
DWIDTH 13 0
BBX 9 12 2 1
VVECTOR 7 16
SWIDTH1 0 -1000
DWIDTH1 0 -19
BITMAP 
0400
0400
1F00
6480
C400
C400
C400
C400
6480
1F00
0400
0400
ENDCHAR
STARTCHAR charA3
ENCODING 163
SWIDTH 684 0
DWIDTH 13 0
BBX 12 13 0 0
VVECTOR 6 16
SWIDTH1 0 -1000
DWIDTH1 0 -19
BITMAP 
0F00
1080
3180
3000
1800
1800
FFC0
0600
0300
3980
6480
4390
3E60
ENDCHAR
STARTCHAR charA4
ENCODING 164
SWIDTH 684 0
DWIDTH 13 0
BBX 9 14 2 -1
VVECTOR 7 16
SWIDTH1 0 -1000
DWIDTH1 0 -19
BITMAP 
1E00
2100
6300
6000
3800
4E00
C300
6180
3900
0E00
0300
6300
4200
3C00
ENDCHAR
STARTCHAR charA5
ENCODING 165
SWIDTH 474 0
DWIDTH 9 0
BBX 6 5 1 5
VVECTOR 4 16
SWIDTH1 0 -1000
DWIDTH1 0 -19
BITMAP 
78
FC
FC
FC
78
ENDCHAR
STARTCHAR charA6
ENCODING 166
SWIDTH 684 0
DWIDTH 13 0
BBX 12 13 0 0
VVECTOR 6 16
SWIDTH1 0 -1000
DWIDTH1 0 -19
BITMAP 
3CF0
4CC0
CCC0
CCC0
4CC0
3CC0
0CC0
0CC0
0CC0
0CC0
0CC0
0CC0
0CC0
ENDCHAR
STARTCHAR charA7
ENCODING 167
SWIDTH 842 0
DWIDTH 16 0
BBX 13 13 1 0
VVECTOR 8 16
SWIDTH1 0 -1000
DWIDTH1 0 -19
BITMAP 
0700
18C0
3060
3060
30C0
3180
3200
31C0
3030
3018
3418
3630
F5C0
ENDCHAR
STARTCHAR charA8
ENCODING 168
SWIDTH 1000 0
DWIDTH 19 0
BBX 13 11 3 1
VVECTOR 10 16
SWIDTH1 0 -1000
DWIDTH1 0 -19
BITMAP 
0F80
3060
4010
8F08
8888
8F08
8888
8888
4010
3060
0F80
ENDCHAR
STARTCHAR charA9
ENCODING 169
SWIDTH 1000 0
DWIDTH 19 0
BBX 13 11 3 1
VVECTOR 10 16
SWIDTH1 0 -1000
DWIDTH1 0 -19
BITMAP 
0F80
3060
4010
8708
8808
8808
8808
8708
4010
3060
0F80
ENDCHAR
STARTCHAR charAA
ENCODING 170
SWIDTH 684 0
DWIDTH 13 0
BBX 9 3 2 10
VVECTOR 7 16
SWIDTH1 0 -1000
DWIDTH1 0 -19
BITMAP 
E880
4D80
4A80
ENDCHAR
STARTCHAR charAB
ENCODING 171
SWIDTH 684 0
DWIDTH 13 0
BBX 4 3 4 13
VVECTOR 6 16
SWIDTH1 0 -1000
DWIDTH1 0 -19
BITMAP 
30
60
80
ENDCHAR
STARTCHAR charAC
ENCODING 172
SWIDTH 684 0
DWIDTH 13 0
BBX 7 2 3 14
VVECTOR 7 16
SWIDTH1 0 -1000
DWIDTH1 0 -19
BITMAP 
C6
C6
ENDCHAR
STARTCHAR charAD
ENCODING 173
SWIDTH 1000 0
DWIDTH 19 0
BBX 13 11 3 1
VVECTOR 10 16
SWIDTH1 0 -1000
DWIDTH1 0 -19
BITMAP 
0010
0020
0040
FFF8
0100
0200
0400
FFF8
1000
2000
4000
ENDCHAR
STARTCHAR charAE
ENCODING 174
SWIDTH 1211 0
DWIDTH 23 0
BBX 20 13 1 0
VVECTOR 11 16
SWIDTH1 0 -1000
DWIDTH1 0 -19
BITMAP 
07FFF0
013030
023010
023010
043080
043180
0FFF80
083180
103080
103010
203010
203030
F8FFF0
ENDCHAR
STARTCHAR charAF
ENCODING 175
SWIDTH 947 0
DWIDTH 18 0
BBX 15 15 2 -1
VVECTOR 10 16
SWIDTH1 0 -1000
DWIDTH1 0 -19
BITMAP 
0002
0FC4
3038
6018
C02C
C04C
C08C
C10C
C20C
C40C
C80C
7018
3030
4FC0
8000
ENDCHAR
STARTCHAR charB0
ENCODING 176
SWIDTH 1000 0
DWIDTH 19 0
BBX 17 6 1 4
VVECTOR 10 16
SWIDTH1 0 -1000
DWIDTH1 0 -19
BITMAP 
1C1C00
636300
C0C180
C18180
636300
1C1C00
ENDCHAR
STARTCHAR charB1
ENCODING 177
SWIDTH 1000 0
DWIDTH 19 0
BBX 13 11 3 0
VVECTOR 10 16
SWIDTH1 0 -1000
DWIDTH1 0 -19
BITMAP 
0200
0200
0200
0200
FFF8
0200
0200
0200
0200
0000
FFF8
ENDCHAR
STARTCHAR charB2
ENCODING 178
SWIDTH 684 0
DWIDTH 13 0
BBX 10 12 1 0
VVECTOR 6 16
SWIDTH1 0 -1000
DWIDTH1 0 -19
BITMAP 
0600
0C00
1800
3000
6000
3000
1800
0C00
0600
0000
0000
FFC0
ENDCHAR
STARTCHAR charB3
ENCODING 179
SWIDTH 684 0
DWIDTH 13 0
BBX 10 12 1 0
VVECTOR 6 16
SWIDTH1 0 -1000
DWIDTH1 0 -19
BITMAP 
1800
0C00
0600
0300
0180
0300
0600
0C00
1800
0000
0000
FFC0
ENDCHAR
STARTCHAR charB4
ENCODING 180
SWIDTH 1000 0
DWIDTH 19 0
BBX 16 13 1 0
VVECTOR 9 16
SWIDTH1 0 -1000
DWIDTH1 0 -19
BITMAP 
FE3F
1808
0C10
0C10
7E3E
0340
0340
7FFE
0180
0180
0180
0180
0FF0
ENDCHAR
STARTCHAR charB5
ENCODING 181
SWIDTH 684 0
DWIDTH 13 0
BBX 10 11 2 -2
VVECTOR 7 16
SWIDTH1 0 -1000
DWIDTH1 0 -19
BITMAP 
C300
C300
C300
C300
C300
C300
C300
E740
D980
C000
8000
ENDCHAR
STARTCHAR charB6
ENCODING 182
SWIDTH 684 0
DWIDTH 13 0
BBX 10 13 2 0
VVECTOR 7 16
SWIDTH1 0 -1000
DWIDTH1 0 -19
BITMAP 
3E00
4180
60C0
00C0
1EC0
61C0
C0C0
C0C0
C0C0
C0C0
C0C0
6180
1E00
ENDCHAR
STARTCHAR charB7
ENCODING 183
SWIDTH 1000 0
DWIDTH 19 0
BBX 14 17 2 -2
VVECTOR 9 16
SWIDTH1 0 -1000
DWIDTH1 0 -19
BITMAP 
FFF0
6008
3004
1800
0C00
0600
0300
0180
00C0
0100
0200
0400
0800
1000
2004
4008
FFF0
ENDCHAR
STARTCHAR charB8
ENCODING 184
SWIDTH 1000 0
DWIDTH 19 0
BBX 17 13 1 0
VVECTOR 10 16
SWIDTH1 0 -1000
DWIDTH1 0 -19
BITMAP 
FFFF80
180C00
180C00
180C00
180C00
180C00
180C00
180C00
180C00
180C00
180C00
180C00
7E3F00
ENDCHAR
STARTCHAR charB9
ENCODING 185
SWIDTH 1000 0
DWIDTH 19 0
BBX 14 10 2 0
VVECTOR 9 16
SWIDTH1 0 -1000
DWIDTH1 0 -19
BITMAP 
0004
7FF8
9860
1860
1860
1860
1860
1860
1040
2080
ENDCHAR
STARTCHAR charBA
ENCODING 186
SWIDTH 684 0
DWIDTH 13 0
BBX 10 18 1 -3
VVECTOR 6 16
SWIDTH1 0 -1000
DWIDTH1 0 -19
BITMAP 
0380
0440
0CC0
0C00
0C00
0C00
0C00
0C00
0C00
0C00
0C00
0C00
0C00
0C00
0C00
CC00
8800
7000
ENDCHAR
STARTCHAR charBB
ENCODING 187
SWIDTH 737 0
DWIDTH 14 0
BBX 11 13 2 0
VVECTOR 8 16
SWIDTH1 0 -1000
DWIDTH1 0 -19
BITMAP 
1F00
6180
0180
1F80
6180
C180
C180
63A0
1DC0
0000
0000
0000
FFE0
ENDCHAR
STARTCHAR charBC
ENCODING 188
SWIDTH 737 0
DWIDTH 14 0
BBX 10 13 2 0
VVECTOR 7 16
SWIDTH1 0 -1000
DWIDTH1 0 -19
BITMAP 
1E00
6180
C0C0
C0C0
C0C0
C0C0
C0C0
6180
1E00
0000
0000
0000
FFC0
ENDCHAR
STARTCHAR charBD
ENCODING 189
SWIDTH 1000 0
DWIDTH 19 0
BBX 15 13 2 0
VVECTOR 10 16
SWIDTH1 0 -1000
DWIDTH1 0 -19
BITMAP 
0FE0
3018
600C
C006
C006
C006
600C
600C
3018
1010
0820
4444
3C78
ENDCHAR
STARTCHAR charBE
ENCODING 190
SWIDTH 1105 0
DWIDTH 21 0
BBX 17 9 2 0
VVECTOR 11 16
SWIDTH1 0 -1000
DWIDTH1 0 -19
BITMAP 
3E3C00
414300
018180
1F8180
61FF80
C18000
C18000
62C100
1C3E00
ENDCHAR
STARTCHAR charBF
ENCODING 191
SWIDTH 737 0
DWIDTH 14 0
BBX 11 11 2 -1
VVECTOR 8 16
SWIDTH1 0 -1000
DWIDTH1 0 -19
BITMAP 
0020
1E40
6180
C1C0
C2C0
C4C0
C8C0
D0C0
6180
5E00
8000
ENDCHAR
STARTCHAR charC0
ENCODING 192
SWIDTH 684 0
DWIDTH 13 0
BBX 11 13 1 0
VVECTOR 7 16
SWIDTH1 0 -1000
DWIDTH1 0 -19
BITMAP 
0600
0600
0000
0200
0600
0C00
1800
3000
6000
C0C0
C060
60C0
1F00
ENDCHAR
STARTCHAR charC1
ENCODING 193
SWIDTH 474 0
DWIDTH 9 0
BBX 2 13 4 0
VVECTOR 5 16
SWIDTH1 0 -1000
DWIDTH1 0 -19
BITMAP 
C0
C0
00
00
C0
C0
C0
C0
C0
C0
C0
C0
C0
ENDCHAR
STARTCHAR charC2
ENCODING 194
SWIDTH 1000 0
DWIDTH 19 0
BBX 13 3 3 4
VVECTOR 10 16
SWIDTH1 0 -1000
DWIDTH1 0 -19
BITMAP 
FFF8
0008
0008
ENDCHAR
STARTCHAR charC3
ENCODING 195
SWIDTH 1000 0
DWIDTH 19 0
BBX 19 18 0 -3
VVECTOR 10 16
SWIDTH1 0 -1000
DWIDTH1 0 -19
BITMAP 
0003E0
000300
000600
000600
000C00
000C00
001800
001800
003000
003000
006000
006000
20C000
70C000
D98000
0D8000
070000
030000
ENDCHAR
STARTCHAR charC4
ENCODING 196
SWIDTH 684 0
DWIDTH 13 0
BBX 10 16 1 -3
VVECTOR 6 16
SWIDTH1 0 -1000
DWIDTH1 0 -19
BITMAP 
0380
0440
0CC0
0C00
0C00
7F80
0C00
0C00
0C00
0C00
0C00
0C00
0C00
CC00
8800
7000
ENDCHAR
STARTCHAR charC5
ENCODING 197
SWIDTH 1000 0
DWIDTH 19 0
BBX 12 5 3 4
VVECTOR 9 16
SWIDTH1 0 -1000
DWIDTH1 0 -19
BITMAP 
7C10
83E0
0000
7C10
83E0
ENDCHAR
STARTCHAR charC6
ENCODING 198
SWIDTH 1000 0
DWIDTH 19 0
BBX 14 13 2 0
VVECTOR 9 16
SWIDTH1 0 -1000
DWIDTH1 0 -19
BITMAP 
0300
0580
0580
08C0
08C0
1060
1060
2030
2030
4018
4018
800C
FFFC
ENDCHAR
STARTCHAR charC7
ENCODING 199
SWIDTH 684 0
DWIDTH 13 0
BBX 10 7 1 2
VVECTOR 6 16
SWIDTH1 0 -1000
DWIDTH1 0 -19
BITMAP 
18C0
3180
6300
C600
6300
3180
18C0
ENDCHAR
STARTCHAR charC8
ENCODING 200
SWIDTH 684 0
DWIDTH 13 0
BBX 10 7 2 2
VVECTOR 7 16
SWIDTH1 0 -1000
DWIDTH1 0 -19
BITMAP 
C600
6300
3180
18C0
3180
6300
C600
ENDCHAR
STARTCHAR charC9
ENCODING 201
SWIDTH 1000 0
DWIDTH 19 0
BBX 14 2 2 0
VVECTOR 9 16
SWIDTH1 0 -1000
DWIDTH1 0 -19
BITMAP 
C30C
C30C
ENDCHAR
STARTCHAR charCA
ENCODING 202
SWIDTH 526 0
DWIDTH 10 0
BBX 0 0 0 -3
VVECTOR 0 -3
SWIDTH1 0 0
DWIDTH1 0 0
BITMAP 
ENDCHAR
STARTCHAR charCB
ENCODING 203
SWIDTH 895 0
DWIDTH 17 0
BBX 16 16 0 0
VVECTOR 8 16
SWIDTH1 0 -1000
DWIDTH1 0 -19
BITMAP 
0600
0300
0000
0180
02C0
02C0
0460
0460
0830
0830
0FF0
1018
1018
200C
200C
F83F
ENDCHAR
STARTCHAR charCC
ENCODING 204
SWIDTH 895 0
DWIDTH 17 0
BBX 16 16 0 0
VVECTOR 8 16
SWIDTH1 0 -1000
DWIDTH1 0 -19
BITMAP 
0710
08E0
0000
0180
02C0
02C0
0460
0460
0830
0830
0FF0
1018
1018
200C
200C
F83F
ENDCHAR
STARTCHAR charCD
ENCODING 205
SWIDTH 947 0
DWIDTH 18 0
BBX 14 16 2 0
VVECTOR 9 16
SWIDTH1 0 -1000
DWIDTH1 0 -19
BITMAP 
0F10
11E0
0000
0FC0
3030
6018
C00C
C00C
C00C
C00C
C00C
C00C
C00C
6018
3030
0FC0
ENDCHAR
STARTCHAR charCE
ENCODING 206
SWIDTH 1316 0
DWIDTH 25 0
BBX 22 13 2 0
VVECTOR 13 16
SWIDTH1 0 -1000
DWIDTH1 0 -19
BITMAP 
0FFFFC
30380C
601804
C01804
C01840
C018C0
C01FC0
C018C0
C01840
C01804
601804
30380C
0FFFFC
ENDCHAR
STARTCHAR charCF
ENCODING 207
SWIDTH 1158 0
DWIDTH 22 0
BBX 18 9 2 0
VVECTOR 11 16
SWIDTH1 0 -1000
DWIDTH1 0 -19
BITMAP 
1E1E00
61E180
C0C0C0
C0C0C0
C0FFC0
C0C000
C0C000
61E080
1E1F00
ENDCHAR
STARTCHAR charD0
ENCODING 208
SWIDTH 474 0
DWIDTH 9 0
BBX 7 1 1 7
VVECTOR 5 16
SWIDTH1 0 -1000
DWIDTH1 0 -19
BITMAP 
FE
ENDCHAR
STARTCHAR charD1
ENCODING 209
SWIDTH 1000 0
DWIDTH 19 0
BBX 19 1 0 7
VVECTOR 10 16
SWIDTH1 0 -1000
DWIDTH1 0 -19
BITMAP 
FFFFE0
ENDCHAR
STARTCHAR charD2
ENCODING 210
SWIDTH 579 0
DWIDTH 11 0
BBX 8 4 1 9
VVECTOR 5 16
SWIDTH1 0 -1000
DWIDTH1 0 -19
BITMAP 
21
42
C6
63
ENDCHAR
STARTCHAR charD3
ENCODING 211
SWIDTH 579 0
DWIDTH 11 0
BBX 8 4 2 10
VVECTOR 6 16
SWIDTH1 0 -1000
DWIDTH1 0 -19
BITMAP 
C6
63
42
84
ENDCHAR
STARTCHAR charD4
ENCODING 212
SWIDTH 368 0
DWIDTH 7 0
BBX 3 4 2 9
VVECTOR 4 16
SWIDTH1 0 -1000
DWIDTH1 0 -19
BITMAP 
20
40
C0
60
ENDCHAR
STARTCHAR charD5
ENCODING 213
SWIDTH 368 0
DWIDTH 7 0
BBX 3 4 2 10
VVECTOR 4 16
SWIDTH1 0 -1000
DWIDTH1 0 -19
BITMAP 
C0
60
40
80
ENDCHAR
STARTCHAR charD6
ENCODING 214
SWIDTH 1000 0
DWIDTH 19 0
BBX 14 9 2 2
VVECTOR 9 16
SWIDTH1 0 -1000
DWIDTH1 0 -19
BITMAP 
0300
0300
0000
0000
FFFC
0000
0000
0300
0300
ENDCHAR
STARTCHAR charD7
ENCODING 215
SWIDTH 1000 0
DWIDTH 19 0
BBX 13 13 3 0
VVECTOR 10 16
SWIDTH1 0 -1000
DWIDTH1 0 -19
BITMAP 
0200
0700
0D80
18C0
3060
6030
C018
6030
3060
18C0
0D80
0700
0200
ENDCHAR
STARTCHAR charD8
ENCODING 216
SWIDTH 789 0
DWIDTH 15 0
BBX 13 16 1 -3
VVECTOR 8 16
SWIDTH1 0 -1000
DWIDTH1 0 -19
BITMAP 
1860
1860
0000
0000
FCF8
3020
3020
1840
1840
0C80
0C80
0500
0700
6200
4400
3800
ENDCHAR
STARTCHAR missing
ENCODING -1
SWIDTH 789 0
DWIDTH 15 0
BBX 13 16 1 -1
VVECTOR 8 16
SWIDTH1 0 -1000
DWIDTH1 0 -19
BITMAP 
FFF8
F078
CF98
9FC8
CFC8
FF98
FF38
FE78
FCF8
F9F8
FBF8
FBF8
FFF8
F9F8
F9F8
FFF8
ENDCHAR
ENDFONT
